<svg width="41" height="40" viewBox="0 0 41 40" fill="none" xmlns="http://www.w3.org/2000/svg">
<rect opacity="0.1" x="0.453857" width="40" height="40" rx="6" fill="#8181A5"/>
<path d="M16.5164 13.5V14.0625H14.2664V26.4375H26.6414V14.0625H24.3914V13.5H23.2664V14.0625H17.6414V13.5H16.5164ZM15.3914 15.1875H16.5164V15.75H17.6414V15.1875H23.2664V15.75H24.3914V15.1875H25.5164V16.3125H15.3914V15.1875ZM15.3914 17.4375H25.5164V25.3125H15.3914V17.4375ZM18.7664 18.5625V19.6875H19.8914V18.5625H18.7664ZM21.0164 18.5625V19.6875H22.1414V18.5625H21.0164ZM23.2664 18.5625V19.6875H24.3914V18.5625H23.2664ZM16.5164 20.8125V21.9375H17.6414V20.8125H16.5164ZM18.7664 20.8125V21.9375H19.8914V20.8125H18.7664ZM21.0164 20.8125V21.9375H22.1414V20.8125H21.0164ZM23.2664 20.8125V21.9375H24.3914V20.8125H23.2664ZM16.5164 23.0625V24.1875H24.3914V23.0625H16.5164Z" fill="#8181A5"/>
</svg>
