<svg width="60" height="41" viewBox="0 0 60 41" fill="none" xmlns="http://www.w3.org/2000/svg">
<path d="M0.683594 8.25295C0.683594 3.83468 4.26532 0.252945 8.68359 0.252945H51.1871C55.6054 0.252945 59.1871 3.83467 59.1871 8.25294V32.2505C59.1871 36.6688 55.6054 40.2505 51.1871 40.2505H8.68359C4.26532 40.2505 0.683594 36.6688 0.683594 32.2505V8.25295Z" fill="#5E81F4" fill-opacity="0.1"/>
<path d="M22.3737 26.4618H23.7915L33.5172 18.5056L32.0994 17.3457L22.3737 25.3019V26.4618ZM20.3838 28.0897V24.6304L33.5172 13.9068C33.7162 13.7576 33.936 13.6423 34.1764 13.5609C34.4169 13.4795 34.6697 13.4388 34.9351 13.4388C35.2004 13.4388 35.4574 13.4795 35.7062 13.5609C35.9549 13.6423 36.1705 13.7644 36.3529 13.9271L37.7209 15.0667C37.9199 15.2159 38.065 15.3922 38.1562 15.5957C38.2474 15.7992 38.293 16.0027 38.293 16.2062C38.293 16.4232 38.2474 16.6301 38.1562 16.8268C38.065 17.0235 37.9199 17.2033 37.7209 17.366L24.6124 28.0897H20.3838ZM32.7959 17.9358L32.0994 17.3457L33.5172 18.5056L32.7959 17.9358Z" fill="#5E81F4"/>
</svg>
