<svg width="30" height="30" viewBox="0 0 30 30" fill="none" xmlns="http://www.w3.org/2000/svg">
<g clip-path="url(#clip0_44_1712)">
<path d="M24.2188 18.8787C25.0299 16.9516 25.2166 14.8188 24.7526 12.78C24.2887 10.7413 23.1975 8.89924 21.6325 7.51281C20.0674 6.12639 18.1071 5.26533 16.0273 5.0507C13.9475 4.83607 11.8528 5.27866 10.0375 6.31625L8.79755 4.145C10.6946 3.06077 12.8428 2.49296 15.0278 2.49822C17.2128 2.50348 19.3583 3.08164 21.25 4.175C26.8625 7.415 29.0125 14.3525 26.3963 20.1375L28.0738 21.105L22.8675 23.8725L22.6613 17.98L24.2188 18.8787ZM5.7813 11.1212C4.97023 13.0484 4.78353 15.1812 5.24744 17.22C5.71136 19.2587 6.80257 21.1008 8.36764 22.4872C9.93272 23.8736 11.893 24.7347 13.9728 24.9493C16.0526 25.1639 18.1473 24.7213 19.9625 23.6838L21.2025 25.855C19.3055 26.9392 17.1573 27.507 14.9723 27.5018C12.7873 27.4965 10.6418 26.9184 8.75005 25.825C3.13755 22.585 0.987549 15.6475 3.6038 9.8625L1.92505 8.89625L7.1313 6.12875L7.33755 12.0212L5.78005 11.1225L5.7813 11.1212ZM16.7688 18.535L13.23 15L9.69505 18.535L7.92755 16.7675L13.2313 11.465L16.7675 15L20.3038 11.465L22.0713 13.2325L16.7675 18.535H16.7688Z" fill="#5E81F4"/>
</g>
<defs>
<clipPath id="clip0_44_1712">
<rect width="30" height="30" fill="white"/>
</clipPath>
</defs>
</svg>
