<svg width="59" height="41" viewBox="0 0 59 41" fill="none" xmlns="http://www.w3.org/2000/svg">
<path d="M0.0654297 8.22968C0.0654297 3.8114 3.64715 0.229675 8.06543 0.229675H50.569C54.9873 0.229675 58.569 3.8114 58.569 8.22968V32.2266C58.569 36.6449 54.9873 40.2266 50.569 40.2266H8.06543C3.64715 40.2266 0.0654297 36.6449 0.0654297 32.2266V8.22968Z" fill="white"/>
<path d="M0.0654297 8.22968C0.0654297 3.8114 3.64715 0.229675 8.06543 0.229675H50.569C54.9873 0.229675 58.569 3.8114 58.569 8.22968V32.2266C58.569 36.6449 54.9873 40.2266 50.569 40.2266H8.06543C3.64715 40.2266 0.0654297 36.6449 0.0654297 32.2266V8.22968Z" fill="#FF808B" fill-opacity="0.1"/>
<path d="M23.7455 27.5989C23.1983 27.5989 22.7298 27.4256 22.3401 27.0791C21.9504 26.7326 21.7556 26.3161 21.7556 25.8295V14.3284H20.7606V12.559H25.7354V11.6743H31.7052V12.559H36.68V14.3284H35.685V25.8295C35.685 26.3161 35.4902 26.7326 35.1005 27.0791C34.7108 27.4256 34.2423 27.5989 33.6951 27.5989H23.7455ZM33.6951 14.3284H23.7455V25.8295H33.6951V14.3284ZM25.7354 24.0601H27.7253V16.0978H25.7354V24.0601ZM29.7152 24.0601H31.7052V16.0978H29.7152V24.0601Z" fill="#FF808B"/>
</svg>
