<svg width="72" height="70" viewBox="0 0 72 70" fill="none" xmlns="http://www.w3.org/2000/svg">
<rect y="0.389648" width="72" height="69.5931" rx="8" fill="white"/>
<rect y="0.389648" width="72" height="69.5931" rx="8" fill="#5E81F4" fill-opacity="0.1"/>
<path d="M34.6808 21.3896C33.41 21.3896 32.2329 21.7021 31.1496 22.3271C30.0871 22.9521 29.2433 23.8063 28.6183 24.8896C27.9933 25.9521 27.6808 27.1188 27.6808 28.3896C27.6808 29.5771 27.9517 30.6813 28.4933 31.7021C29.0558 32.723 29.8163 33.5563 30.7746 34.2021C29.5871 34.723 28.5246 35.4417 27.5871 36.3584C26.6704 37.2751 25.9621 38.3271 25.4621 39.5146C24.9413 40.7438 24.6808 42.0355 24.6808 43.3896H26.6808C26.6808 41.9313 27.035 40.598 27.7433 39.3896C28.4725 38.1605 29.4413 37.1917 30.6496 36.4834C31.8788 35.7542 33.2225 35.3896 34.6808 35.3896C36.0142 35.3896 37.2746 35.7126 38.4621 36.3584C37.8996 37.0667 37.4621 37.848 37.1496 38.7021C36.8371 39.5563 36.6808 40.4521 36.6808 41.3896C36.6808 42.8271 37.035 44.1605 37.7433 45.3896C38.4725 46.6188 39.4517 47.5876 40.6808 48.2959C41.91 49.0251 43.2433 49.3896 44.6808 49.3896C46.1183 49.3896 47.4517 49.0251 48.6808 48.2959C49.91 47.5876 50.8788 46.6188 51.5871 45.3896C52.3163 44.1605 52.6808 42.8271 52.6808 41.3896C52.6808 39.9521 52.3163 38.6188 51.5871 37.3896C50.8788 36.1605 49.91 35.1917 48.6808 34.4834C47.4517 33.7542 46.1183 33.3896 44.6808 33.3896C43.8267 33.3896 42.9933 33.5251 42.1808 33.7959C41.3892 34.0667 40.66 34.4417 39.9933 34.9209C39.5975 34.6709 39.1288 34.4313 38.5871 34.2021C39.5454 33.5563 40.2954 32.723 40.8371 31.7021C41.3996 30.6813 41.6808 29.5771 41.6808 28.3896C41.6808 27.1188 41.3683 25.9521 40.7433 24.8896C40.1183 23.8063 39.2642 22.9521 38.1808 22.3271C37.1183 21.7021 35.9517 21.3896 34.6808 21.3896ZM34.6808 23.3896C35.5975 23.3896 36.4308 23.6188 37.1808 24.0771C37.9517 24.5146 38.5558 25.1188 38.9933 25.8896C39.4517 26.6396 39.6808 27.473 39.6808 28.3896C39.6808 29.3063 39.4517 30.1501 38.9933 30.9209C38.5558 31.6709 37.9517 32.2751 37.1808 32.7334C36.4308 33.1709 35.5975 33.3896 34.6808 33.3896C33.7642 33.3896 32.9204 33.1709 32.1496 32.7334C31.3996 32.2751 30.7954 31.6709 30.3371 30.9209C29.8996 30.1501 29.6808 29.3063 29.6808 28.3896C29.6808 27.473 29.8996 26.6396 30.3371 25.8896C30.7954 25.1188 31.3996 24.5146 32.1496 24.0771C32.9204 23.6188 33.7642 23.3896 34.6808 23.3896ZM44.6808 35.3896C45.7642 35.3896 46.7642 35.6605 47.6808 36.2021C48.5975 36.7438 49.3267 37.473 49.8683 38.3896C50.41 39.3063 50.6808 40.3063 50.6808 41.3896C50.6808 42.473 50.41 43.473 49.8683 44.3896C49.3267 45.3063 48.5975 46.0355 47.6808 46.5771C46.7642 47.1188 45.7642 47.3896 44.6808 47.3896C43.5975 47.3896 42.5975 47.1188 41.6808 46.5771C40.7642 46.0355 40.035 45.3063 39.4933 44.3896C38.9517 43.473 38.6808 42.473 38.6808 41.3896C38.6808 40.3063 38.9517 39.3063 39.4933 38.3896C40.035 37.473 40.7642 36.7438 41.6808 36.2021C42.5975 35.6605 43.5975 35.3896 44.6808 35.3896ZM43.6808 37.3896V40.3896H40.6808V42.3896H43.6808V45.3896H45.6808V42.3896H48.6808V40.3896H45.6808V37.3896H43.6808Z" fill="#1B51E5"/>
</svg>
