<svg width="30" height="30" viewBox="0 0 30 30" fill="none" xmlns="http://www.w3.org/2000/svg">
<path opacity="0.25" d="M14.684 25.388C20.3284 25.388 24.904 20.8123 24.904 15.168C24.904 9.52365 20.3284 4.948 14.684 4.948C9.03965 4.948 4.464 9.52365 4.464 15.168C4.464 20.8123 9.03965 25.388 14.684 25.388Z" fill="#5E81F4"/>
<path opacity="0.5" d="M6.292 13.272C3.74884 13.2711 1.45629 11.7394 0.482133 9.39017C-0.492025 7.04099 0.0437846 4.33636 1.84 2.53601C4.29692 0.0803216 8.27908 0.0803216 10.736 2.53601C11.9163 3.71538 12.5794 5.31549 12.5794 6.98401C12.5794 8.65253 11.9163 10.2526 10.736 11.432C9.56032 12.6149 7.95978 13.2776 6.292 13.272Z" fill="#5E81F4"/>
<path opacity="0.5" d="M23.308 29.896C20.3057 29.8971 17.7208 27.7768 17.1348 24.8322C16.5488 21.8876 18.1248 18.9392 20.8988 17.7906C23.6728 16.6421 26.8717 17.6134 28.5388 20.1105C30.2058 22.6075 29.8764 25.9344 27.752 28.056C26.5753 29.2374 24.9754 29.8998 23.308 29.896Z" fill="#5E81F4"/>
<path d="M6.46 29.828C3.91539 29.8303 1.61987 28.2998 0.643664 25.9499C-0.332546 23.6 0.202755 20.8934 2 19.092C2.27475 18.8241 2.57332 18.5818 2.892 18.368L3.2 18.172C3.416 18.044 3.64 17.928 3.876 17.816C3.996 17.764 4.116 17.708 4.248 17.66C4.49358 17.5703 4.74479 17.4968 5 17.44L5.16 17.396C5.18744 17.3862 5.2155 17.3782 5.244 17.372L6.668 17.268C6.852 17.268 7.068 17.304 7.264 17.332H7.308H7.496H7.556H7.616H8C10.4617 17.3091 12.8115 16.3006 14.524 14.532C16.2459 12.7768 17.1888 10.4023 17.14 7.94401V7.87601V7.80801C17.1259 7.73144 17.1178 7.65386 17.116 7.57601V7.38401L17.064 7.20001C17.064 7.08801 17.036 6.96801 17.032 6.85201L17.128 5.53201V5.50001V5.47601C17.128 5.44401 17.188 5.26801 17.188 5.26801C17.2488 4.99683 17.3263 4.72965 17.42 4.46801C17.464 4.34801 17.52 4.22801 17.576 4.10801C17.681 3.87115 17.8013 3.64133 17.936 3.42001V3.38401C17.992 3.29201 18.044 3.20001 18.108 3.11201C18.3181 2.79533 18.5579 2.49934 18.824 2.22801C21.285 -0.237387 25.2786 -0.240968 27.744 2.22001C30.2094 4.68099 30.213 8.67461 27.752 11.14C27.4788 11.4056 27.1815 11.6453 26.864 11.856C26.768 11.924 26.684 11.972 26.6 12.024L26.552 12.052C26.32 12.188 26.096 12.308 25.88 12.408C25.752 12.464 25.636 12.52 25.516 12.564C25.2636 12.6557 25.0057 12.7318 24.744 12.792C24.6886 12.8038 24.6339 12.8185 24.58 12.836L24.48 12.864L23.084 12.96C22.908 12.96 22.72 12.928 22.524 12.904H22.436H22.256H22.14H22.076H21.764C16.6622 12.9786 12.5777 17.1579 12.62 22.26V22.328V22.4C12.6308 22.4702 12.6375 22.541 12.64 22.612C12.64 22.688 12.64 22.76 12.66 22.832C12.68 22.904 12.66 22.968 12.684 23.04C12.698 23.1435 12.706 23.2476 12.708 23.352L12.608 24.724C12.6005 24.7605 12.5912 24.7965 12.58 24.832L12.544 24.956C12.4868 25.2277 12.4106 25.495 12.316 25.756C12.272 25.876 12.212 26 12.156 26.124C12.0543 26.355 11.9408 26.5807 11.816 26.8C11.752 26.912 11.692 27.012 11.624 27.108C11.4121 27.428 11.1696 27.7268 10.9 28C9.72428 29.1804 8.12605 29.8428 6.46 29.84V29.828Z" fill="#5E81F4"/>
</svg>
