<svg width="36" height="36" viewBox="0 0 36 36" fill="none" xmlns="http://www.w3.org/2000/svg">
<rect width="36" height="36" rx="6" fill="#F0F0F3"/>
<path d="M18 12.0625C16.9701 12.0625 16.013 12.3223 15.1289 12.8418C14.2721 13.3431 13.5931 14.0221 13.0918 14.8789C12.5723 15.763 12.3125 16.7201 12.3125 17.75C12.3125 18.7799 12.5723 19.737 13.0918 20.6211C13.5931 21.4779 14.2721 22.1569 15.1289 22.6582C16.013 23.1777 16.9701 23.4375 18 23.4375C19.0299 23.4375 19.987 23.1777 20.8711 22.6582C21.7279 22.1569 22.4069 21.4779 22.9082 20.6211C23.4277 19.737 23.6875 18.7799 23.6875 17.75C23.6875 16.7201 23.4277 15.763 22.9082 14.8789C22.4069 14.0221 21.7279 13.3431 20.8711 12.8418C19.987 12.3223 19.0299 12.0625 18 12.0625ZM18 12.9375C18.875 12.9375 19.6862 13.1562 20.4336 13.5938C21.1536 14.0221 21.7279 14.5964 22.1562 15.3164C22.5938 16.0638 22.8125 16.875 22.8125 17.75C22.8125 18.625 22.5938 19.4362 22.1562 20.1836C21.7279 20.9036 21.1536 21.4779 20.4336 21.9062C19.6862 22.3438 18.875 22.5625 18 22.5625C17.125 22.5625 16.3138 22.3438 15.5664 21.9062C14.8464 21.4779 14.2721 20.9036 13.8438 20.1836C13.4062 19.4362 13.1875 18.625 13.1875 17.75C13.1875 16.875 13.4062 16.0638 13.8438 15.3164C14.2721 14.5964 14.8464 14.0221 15.5664 13.5938C16.3138 13.1562 17.125 12.9375 18 12.9375ZM17.5625 15.125V17.3125H15.375V18.1875H17.5625V20.375H18.4375V18.1875H20.625V17.3125H18.4375V15.125H17.5625Z" fill="#8181A5"/>
</svg>
