<svg width="12" height="12" viewBox="0 0 12 12" fill="none" xmlns="http://www.w3.org/2000/svg">
<path d="M7.3125 0.0625C6.51953 0.0625 5.78581 0.263021 5.11133 0.664062C4.44596 1.04688 3.92188 1.57096 3.53906 2.23633C3.13802 2.91081 2.9375 3.64453 2.9375 4.4375C2.9375 4.95703 3.02409 5.45378 3.19727 5.92773C3.37044 6.39258 3.61198 6.81641 3.92188 7.19922L0.435547 10.6855L1.06445 11.3145L4.55078 7.82812C4.93359 8.13802 5.35742 8.37956 5.82227 8.55273C6.29622 8.72591 6.79297 8.8125 7.3125 8.8125C8.10547 8.8125 8.83919 8.61198 9.51367 8.21094C10.179 7.82812 10.7031 7.30404 11.0859 6.63867C11.487 5.96419 11.6875 5.23047 11.6875 4.4375C11.6875 3.64453 11.487 2.91081 11.0859 2.23633C10.7031 1.57096 10.179 1.04688 9.51367 0.664062C8.83919 0.263021 8.10547 0.0625 7.3125 0.0625ZM7.3125 0.9375C7.95052 0.9375 8.53385 1.09701 9.0625 1.41602C9.60026 1.72591 10.0241 2.14974 10.334 2.6875C10.653 3.21615 10.8125 3.79948 10.8125 4.4375C10.8125 5.07552 10.653 5.66341 10.334 6.20117C10.0241 6.72982 9.60026 7.15365 9.0625 7.47266C8.53385 7.78255 7.95052 7.9375 7.3125 7.9375C6.67448 7.9375 6.08659 7.78255 5.54883 7.47266C5.02018 7.15365 4.59635 6.72982 4.27734 6.20117C3.96745 5.66341 3.8125 5.07552 3.8125 4.4375C3.8125 3.79948 3.96745 3.21615 4.27734 2.6875C4.59635 2.14974 5.02018 1.72591 5.54883 1.41602C6.08659 1.09701 6.67448 0.9375 7.3125 0.9375Z" fill="#8181A5"/>
</svg>
