<svg width="43" height="43" viewBox="0 0 43 43" fill="none" xmlns="http://www.w3.org/2000/svg">
<rect x="0.878906" y="0.317657" width="42" height="42" rx="8" fill="white"/>
<rect x="0.878906" y="0.317657" width="42" height="42" rx="8" fill="#5E81F4" fill-opacity="0.1"/>
<path d="M22 11.125C21.5846 11.125 21.2194 11.2611 20.9043 11.5332C20.6035 11.7767 20.3743 12.099 20.2168 12.5H14.4375V29.6875H29.5625V12.5H23.7832C23.6257 12.099 23.3965 11.7767 23.0957 11.5332C22.7806 11.2611 22.4154 11.125 22 11.125ZM22 12.5C22.1862 12.5 22.3438 12.5716 22.4727 12.7148C22.6159 12.8438 22.6875 13.0013 22.6875 13.1875V13.875H24.75V15.25H19.25V13.875H21.3125V13.1875C21.3125 13.0013 21.377 12.8438 21.5059 12.7148C21.6491 12.5716 21.8138 12.5 22 12.5ZM15.8125 13.875H17.875V16.625H26.125V13.875H28.1875V28.3125H15.8125V13.875ZM25.6309 18.8809L21.3125 23.1992L19.0566 20.9434L18.0684 21.9316L20.8184 24.6816L21.3125 25.1543L21.8066 24.6816L26.6191 19.8691L25.6309 18.8809Z" fill="#5E81F4"/>
</svg>
