<svg width="52" height="52" viewBox="0 0 52 52" fill="none" xmlns="http://www.w3.org/2000/svg">
<rect width="52" height="52" rx="8" fill="white"/>
<rect width="52" height="52" rx="8" fill="#5E81F4" fill-opacity="0.1"/>
<path d="M25.6826 20.1152C24.9677 20.1152 24.3056 20.291 23.6962 20.6426C23.0986 20.9941 22.624 21.4746 22.2724 22.084C21.9208 22.6816 21.7451 23.3379 21.7451 24.0527C21.7451 24.7324 21.8974 25.3652 22.2021 25.9512C22.5185 26.5254 22.9462 26.9824 23.4853 27.3223C22.8173 27.5801 22.2197 27.9668 21.6923 28.4824C21.1767 28.998 20.7724 29.5957 20.4794 30.2754C20.1982 30.9551 20.0576 31.6758 20.0576 32.4375H21.1826C21.1826 31.6289 21.3818 30.8789 21.7802 30.1875C22.1904 29.4961 22.7412 28.9512 23.4326 28.5527C24.124 28.1426 24.874 27.9375 25.6826 27.9375C25.9052 27.9375 26.204 27.9727 26.579 28.043L26.6669 27.9551C26.3505 28.3418 26.1044 28.7754 25.9287 29.2559C25.7646 29.7363 25.6826 30.2344 25.6826 30.75C25.6826 31.5586 25.8818 32.3086 26.2802 33C26.6904 33.6914 27.2412 34.2363 27.9326 34.6348C28.624 35.0449 29.374 35.25 30.1826 35.25C30.9912 35.25 31.7412 35.0449 32.4326 34.6348C33.124 34.2363 33.6689 33.6914 34.0673 33C34.4775 32.3086 34.6826 31.5586 34.6826 30.75C34.6826 29.9414 34.4775 29.1914 34.0673 28.5C33.6689 27.8086 33.124 27.2637 32.4326 26.8652C31.7412 26.4551 30.9912 26.25 30.1826 26.25C29.7021 26.25 29.2275 26.332 28.7587 26.4961C29.0283 26.1562 29.2392 25.7754 29.3915 25.3535C29.5439 24.9199 29.6201 24.4863 29.6201 24.0527C29.6201 23.3379 29.4443 22.6816 29.0927 22.084C28.7412 21.4746 28.2607 20.9941 27.6513 20.6426C27.0537 20.291 26.3974 20.1152 25.6826 20.1152ZM25.6826 21.1875C26.1982 21.1875 26.6669 21.3164 27.0888 21.5742C27.5224 21.8203 27.8622 22.1602 28.1083 22.5938C28.3662 23.0156 28.4951 23.4844 28.4951 24C28.4951 24.5156 28.3662 24.9902 28.1083 25.4238C27.8622 25.8457 27.5224 26.1855 27.0888 26.4434C26.6669 26.6895 26.1982 26.8125 25.6826 26.8125C25.1669 26.8125 24.6923 26.6895 24.2587 26.4434C23.8369 26.1855 23.497 25.8457 23.2392 25.4238C22.9931 24.9902 22.8701 24.5156 22.8701 24C22.8701 23.4844 22.9931 23.0156 23.2392 22.5938C23.497 22.1602 23.8369 21.8203 24.2587 21.5742C24.6923 21.3164 25.1669 21.1875 25.6826 21.1875ZM27.5283 27.1289C27.5165 27.1289 27.5107 27.1348 27.5107 27.1465L27.4755 27.1641L27.5283 27.1289ZM30.1826 27.375C30.7919 27.375 31.3544 27.5273 31.8701 27.832C32.3857 28.1367 32.7958 28.5469 33.1005 29.0625C33.4052 29.5781 33.5576 30.1406 33.5576 30.75C33.5576 31.3594 33.4052 31.9219 33.1005 32.4375C32.7958 32.9531 32.3857 33.3633 31.8701 33.668C31.3544 33.9727 30.7919 34.125 30.1826 34.125C29.5732 34.125 29.0107 33.9727 28.4951 33.668C27.9794 33.3633 27.5693 32.9531 27.2646 32.4375C26.9599 31.9219 26.8076 31.3594 26.8076 30.75C26.8076 30.1406 26.9599 29.5781 27.2646 29.0625C27.5693 28.5469 27.9794 28.1367 28.4951 27.832C29.0107 27.5273 29.5732 27.375 30.1826 27.375ZM27.0888 27.498C27.0185 27.5566 26.9482 27.627 26.8779 27.709L27.0888 27.498ZM29.6201 28.5V31.084L28.6708 32.0508L29.4443 32.8242L30.7451 31.541V28.5H29.6201Z" fill="#5E81F4"/>
</svg>
