<svg width="52" height="51" viewBox="0 0 52 51" fill="none" xmlns="http://www.w3.org/2000/svg">
<g clip-path="url(#clip0_15_477)">
<rect width="52" height="52" rx="8" fill="white"/>
<rect width="52" height="52" rx="8" fill="#5E81F4" fill-opacity="0.1"/>
<path d="M24.3125 18.9375C23.5977 18.9375 22.9355 19.1133 22.3262 19.4648C21.7285 19.8164 21.2539 20.2969 20.9023 20.9062C20.5508 21.5039 20.375 22.1602 20.375 22.875C20.375 23.543 20.5273 24.1641 20.832 24.7383C21.1484 25.3125 21.5762 25.7812 22.1152 26.1445C21.4473 26.4375 20.8496 26.8418 20.3223 27.3574C19.8066 27.873 19.4082 28.4648 19.127 29.1328C18.834 29.8242 18.6875 30.5508 18.6875 31.3125H19.8125C19.8125 30.4922 20.0117 29.7422 20.4102 29.0625C20.8203 28.3711 21.3652 27.8262 22.0449 27.4277C22.7363 27.0176 23.4922 26.8125 24.3125 26.8125C24.8984 26.8125 25.4609 26.9297 26 27.1641C26.5156 27.375 26.9844 27.6797 27.4062 28.0781L24.752 30.7324L24.3301 32.8945L24.1543 33.7207L24.9805 33.5449L27.1426 33.123L32.8203 27.4453C33.1484 27.1172 33.3125 26.7188 33.3125 26.25C33.3125 25.7812 33.1484 25.3828 32.8203 25.0547C32.4922 24.7266 32.0938 24.5625 31.625 24.5625C31.168 24.5625 30.7754 24.7207 30.4473 25.0371L28.2148 27.2695C27.7109 26.7891 27.1426 26.4141 26.5098 26.1445C27.0488 25.7812 27.4707 25.3125 27.7754 24.7383C28.0918 24.1641 28.25 23.543 28.25 22.875C28.25 22.1602 28.0742 21.5039 27.7227 20.9062C27.3711 20.2969 26.8906 19.8164 26.2812 19.4648C25.6836 19.1133 25.0273 18.9375 24.3125 18.9375ZM24.3125 20.0625C24.8281 20.0625 25.2969 20.1914 25.7188 20.4492C26.1523 20.6953 26.4922 21.0352 26.7383 21.4688C26.9961 21.8906 27.125 22.3594 27.125 22.875C27.125 23.3906 26.9961 23.8652 26.7383 24.2988C26.4922 24.7207 26.1523 25.0605 25.7188 25.3184C25.2969 25.5645 24.8281 25.6875 24.3125 25.6875C23.7969 25.6875 23.3223 25.5645 22.8887 25.3184C22.4668 25.0605 22.127 24.7207 21.8691 24.2988C21.623 23.8652 21.5 23.3906 21.5 22.875C21.5 22.3594 21.623 21.8906 21.8691 21.4688C22.127 21.0352 22.4668 20.6953 22.8887 20.4492C23.3223 20.1914 23.7969 20.0625 24.3125 20.0625ZM31.625 25.6875C31.7891 25.6875 31.9238 25.7461 32.0293 25.8633C32.1465 25.9688 32.2051 26.0977 32.2051 26.25C32.2051 26.3906 32.1465 26.5195 32.0293 26.6367L26.5801 32.0859L25.5781 32.2969L25.7891 31.2949L31.2383 25.8457C31.3438 25.7402 31.4727 25.6875 31.625 25.6875Z" fill="#5E81F4"/>
</g>
<defs>
<clipPath id="clip0_15_477">
<rect width="52" height="51" fill="white"/>
</clipPath>
</defs>
</svg>
